<?xml version="1.0" standalone="no"?>
<!DOCTYPE svg PUBLIC "-//W3C//DTD SVG 20010904//EN" "http://www.w3.org/TR/2001/REC-SVG-20010904/DTD/svg10.dtd">
<svg xmlns="http://www.w3.org/2000/svg" version="1.0" width="500.000000pt" height="500.000000pt" viewBox="0 0 500.000000 500.000000" preserveAspectRatio="xMidYMid meet">
<metadata>
Created by potrace 1.16, written by Peter Selinger 2001-2019
<meta name="Producer" content="Online-Convert"/></metadata>
<g transform="translate(0.000000,500.000000) scale(0.100000,-0.100000)" fill="#000000" stroke="none">
<path d="M2385 4531 c-100 -26 -169 -108 -183 -216 l-7 -58 -66 -17 c-81 -21 -218 -94 -317 -167 -73 -55 -190 -177 -227 -236 -10 -18 -22 -34 -26 -37 -20 -14 -110 -215 -133 -296 -40 -136 -47 -231 -40 -494 4 -129 7 -334 8 -455 l1 -220 -35 -75 c-40 -87 -42 -89 -136 -189 -39 -42 -112 -120 -162 -174 -64 -69 -95 -111 -104 -140 -15 -49 -13 -366 2 -381 6 -6 203 -9 518 -7 279 2 977 4 1552 6 575 2 1060 4 1079 4 l34 1 -6 175 c-5 137 -10 183 -24 212 -9 21 -93 115 -188 209 -223 225 -237 243 -282 363 -24 64 -25 81 -38 486 -11 351 -17 436 -34 520 -12 55 -25 109 -31 120 -5 11 -19 45 -30 75 -52 143 -162 313 -265 410 -27 25 -58 54 -69 66 -79 79 -281 192 -400 224 l-60 17 -18 72 c-30 124 -109 197 -224 206 -32 2 -72 1 -89 -4z m725 -1511 c0 -580 0 -590 -21 -627 -29 -53 -48 -72 -94 -96 -36 -20 -61 -22 -252 -27 -199 -5 -213 -6 -242 -27 l-30 -23 -47 25 c-45 24 -54 25 -230 25 -159 0 -190 3 -237 20 -64 24 -111 71 -126 125 -7 27 -11 234 -11 618 l0 577 645 0 645 0 0 -590z m-695 -953 c40 -10 58 -10 90 -1 25 8 114 13 238 13 l197 1 0 -30 c0 -22 -5 -30 -17 -30 -332 -3 -367 -5 -413 -31 l-45 -25 -45 26 c-44 24 -50 25 -242 25 l-198 0 0 33 0 32 193 0 c124 0 210 -5 242 -13z"/>
<path d="M1897 3543 c-4 -3 -7 -255 -7 -560 l0 -553 33 -36 c42 -47 77 -53 293 -54 139 0 177 -3 204 -17 29 -14 39 -14 74 -3 24 7 124 15 241 19 217 8 247 15 282 68 17 25 18 71 21 563 1 294 0 545 -3 558 l-5 22 -564 0 c-309 0 -566 -3 -569 -7z m677 -179 c3 -9 6 -24 6 -34 0 -11 16 -26 40 -39 51 -26 66 -26 80 -1 6 11 16 20 23 20 7 0 45 -33 85 -73 l73 -73 -21 -26 c-24 -32 -24 -32 -2 -85 16 -40 20 -43 55 -43 l37 0 0 -100 0 -100 -25 16 c-22 14 -25 24 -25 70 0 54 -3 58 -42 55 -11 -2 -20 7 -24 26 -3 15 -18 52 -32 82 -21 43 -23 57 -14 72 19 30 14 45 -24 78 -35 31 -36 31 -64 14 -23 -13 -32 -14 -43 -4 -8 6 -39 20 -68 31 -45 15 -55 23 -59 47 -5 27 -7 28 -65 28 -58 0 -60 -1 -65 -29 -3 -21 -12 -32 -30 -36 -14 -4 -47 -17 -74 -30 -39 -17 -54 -20 -68 -11 -28 18 -42 13 -78 -24 l-34 -35 22 -23 c21 -22 21 -24 5 -47 -10 -14 -25 -47 -34 -75 -13 -42 -21 -51 -45 -55 -26 -4 -29 -10 -32 -45 -3 -38 -25 -75 -44 -75 -4 0 -8 38 -8 85 l0 85 39 0 c38 0 39 1 55 51 17 51 17 52 -5 76 l-23 24 77 76 76 77 24 -22 c28 -27 28 -27 81 -2 44 19 56 35 56 71 0 17 8 19 104 19 85 0 105 -3 110 -16z m-139 -470 c26 -15 57 -37 70 -50 19 -19 35 -24 73 -24 33 0 68 -9 110 -30 34 -16 69 -30 78 -30 79 0 164 -56 164 -109 0 -17 -4 -31 -8 -31 -5 0 -29 14 -53 32 -33 25 -59 34 -105 39 -39 4 -72 14 -91 28 -23 17 -46 23 -91 25 -46 1 -69 7 -89 23 -92 72 -105 78 -164 78 -56 0 -87 -15 -169 -82 -8 -7 -46 -37 -85 -68 l-70 -55 -3 37 c-3 33 1 42 35 73 74 66 167 133 213 153 57 25 130 21 185 -9z"/>
<path d="M4306 4037 c-47 -47 -36 -82 55 -185 59 -68 135 -219 156 -314 32 -138 16 -353 -33 -446 -8 -15 -14 -31 -14 -37 -1 -16 -67 -114 -117 -172 -30 -34 -29 -74 3 -112 33 -39 80 -42 122 -7 32 27 116 148 132 190 5 14 19 46 30 70 53 118 77 358 49 498 -14 70 -39 161 -49 173 -4 6 -13 28 -20 49 -24 75 -95 181 -180 269 -50 51 -98 60 -134 24z"/>
<path d="M516 3973 c-4 -5 -25 -15 -46 -23 -47 -18 -84 -64 -140 -171 -126 -242 -132 -559 -15 -802 72 -149 156 -265 216 -301 29 -17 33 -17 68 -1 26 11 41 27 50 50 15 42 13 46 -78 155 -126 151 -172 278 -174 475 -2 100 2 133 22 195 26 85 79 200 92 200 5 0 9 6 9 13 0 8 12 24 26 38 53 49 66 98 39 149 -15 29 -51 41 -69 23z"/>
<path d="M4020 3893 c-26 -9 -40 -35 -40 -74 0 -29 10 -49 51 -100 102 -127 144 -273 120 -415 -12 -66 -58 -179 -84 -206 -47 -48 -59 -101 -35 -152 13 -30 67 -44 103 -28 49 23 127 155 164 278 32 107 30 274 -4 375 -39 113 -81 194 -132 252 -64 72 -95 87 -143 70z"/>
<path d="M777 3816 c-54 -58 -86 -110 -131 -217 -53 -125 -44 -367 18 -500 56 -119 142 -232 189 -248 55 -20 100 16 100 79 0 33 -9 50 -52 102 -164 198 -173 440 -26 632 25 34 39 64 43 91 4 36 1 45 -23 63 -38 30 -89 29 -118 -2z"/>
<path d="M2370 1140 l-305 -5 -3 -65 c-4 -79 14 -210 33 -247 8 -16 15 -33 15 -39 0 -5 14 -30 32 -55 118 -165 269 -246 444 -236 43 2 95 9 114 14 171 51 304 194 345 373 17 75 20 222 5 251 -12 21 26 21 -680 9z"/>
</g>
</svg>
